# xmcd
#
# Track frame offsets:
#	150
#	19316
#	37196
#	53362
#	69081
#	85623
#	103495
#	122576
#	141469
#	156713
#	173600
#	192607
#	206705
#	224861
#	241671
#	259625
#
# Disc length: 3663 seconds
# Revision: 1
# Processed by: cddbd v1.5.2PL0 Copyright (c) Steve Scherf et al.
# Submitted via: dBpowerAMP V12.0
#
DISCID=f00e4d10
DTITLE=Tim McGraw - The Ultimate Collection, Disc 3
DYEAR=2016
DGENRE=Country
TTITLE0=Over and Over
TTITLE1=Do You Want Fries With That
TTITLE2=My Old Friend
TTITLE3=When The Stars Go Blue [Single Edit]
TTITLE4=My Little Girl
TTITLE5=Last Dollar (Fly Away) [Single Edit]
TTITLE6=Suspicions [Single Edit]
TTITLE7=If You're Reading This
TTITLE8=Kristofferson
TTITLE9=Let It Go
TTITLE10=Nothin' To Die For
TTITLE11=It's A Business Doing Pleasure With You
TTITLE12=Southern Voice
TTITLE13=Still
TTITLE14=Felt Good On My Lips [Single Edit]
TTITLE15=Better Than I Used To Be
EXTD=
EXTT0=
EXTT1=
EXTT2=
EXTT3=
EXTT4=
EXTT5=
EXTT6=
EXTT7=
EXTT8=
EXTT9=
EXTT10=
EXTT11=
EXTT12=
EXTT13=
EXTT14=
EXTT15=
PLAYORDER=
